<svg width="263" height="181" viewBox="0 0 263 181" fill="none" xmlns="http://www.w3.org/2000/svg">
<g filter="url(#filter0_dd_2_2)">
<path d="M104 0.5H226C242.292 0.5 255.5 13.7076 255.5 30V143C255.5 159.292 242.292 172.5 226 172.5H104C87.7076 172.5 74.5 159.292 74.5 143V30C74.5 13.7076 87.7076 0.5 104 0.5Z" stroke="url(#paint0_linear_2_2)"/>
<path d="M153.2 120L146.9 101.8H126.8L120.5 120H113.6L136.6 56.6H137.4L160.4 120H153.2ZM136.9 72.6L128.7 96.4H145.1L136.9 72.6ZM173.7 120L163.7 57.7H170.2L176.9 99.8L186.9 62.3H189.1L199.2 100L204.9 57.7H210.8L200.9 120H198.2L187.5 79.3L176.6 120H173.7Z" fill="white"/>
</g>
<defs>
<filter id="filter0_dd_2_2" x="-4" y="0" width="271" height="181" filterUnits="userSpaceOnUse" color-interpolation-filters="sRGB">
<feFlood flood-opacity="0" result="BackgroundImageFix"/>
<feColorMatrix in="SourceAlpha" type="matrix" values="0 0 0 0 0 0 0 0 0 0 0 0 0 0 0 0 0 0 127 0" result="hardAlpha"/>
<feOffset dy="4"/>
<feGaussianBlur stdDeviation="2"/>
<feComposite in2="hardAlpha" operator="out"/>
<feColorMatrix type="matrix" values="0 0 0 0 0 0 0 0 0 0 0 0 0 0 0 0 0 0 0.25 0"/>
<feBlend mode="normal" in2="BackgroundImageFix" result="effect1_dropShadow_2_2"/>
<feColorMatrix in="SourceAlpha" type="matrix" values="0 0 0 0 0 0 0 0 0 0 0 0 0 0 0 0 0 0 127 0" result="hardAlpha"/>
<feOffset dy="4"/>
<feGaussianBlur stdDeviation="2"/>
<feComposite in2="hardAlpha" operator="out"/>
<feColorMatrix type="matrix" values="0 0 0 0 0 0 0 0 0 0 0 0 0 0 0 0 0 0 0.25 0"/>
<feBlend mode="normal" in2="effect1_dropShadow_2_2" result="effect2_dropShadow_2_2"/>
<feBlend mode="normal" in="SourceGraphic" in2="effect2_dropShadow_2_2" result="shape"/>
</filter>
<linearGradient id="paint0_linear_2_2" x1="165" y1="0" x2="165" y2="173" gradientUnits="userSpaceOnUse">
<stop offset="0.0539999" stop-color="#2E2A71"/>
<stop offset="1" stop-color="white" stop-opacity="0"/>
</linearGradient>
</defs>
</svg>
